<svg xmlns="http://www.w3.org/2000/svg" width="162" height="36" fill="none" viewBox="0 0 162 36">
    <path fill="#fff" fill-rule="evenodd" d="M7.36 15.345v7.576h7.722v5.862l-5.409-1.837.008-.019.004-.009-2.672-.875C1.674 24.229-1.209 18.515.484 13.198l.156-.455c1.936-5.235 7.737-8 13.075-6.187l1.367.46v8.329H7.359zm22.227 0c-1.143-2.48-3.266-4.507-6.067-5.458l-.76-.258v5.716h6.827zm-6.826 14.253c3.257-.84 6.042-3.236 7.212-6.638l.008-.026.004-.013h-7.224v6.677zM119.234 24.713c.421 0 .816-.058 1.173-.174.389-.126.726-.34 1.003-.638.277-.3.497-.71.652-1.222.157-.522.236-1.188.236-1.978v-.854c0-.79-.079-1.464-.238-2.005-.154-.529-.375-.962-.656-1.286-.278-.32-.615-.555-1.004-.696-.359-.13-.758-.197-1.183-.197l-.136.002-.158-.002c-.423 0-.822.063-1.178.187-.388.132-.726.362-1.001.68-.281.327-.502.763-.656 1.299-.157.547-.238 1.226-.238 2.018v.854c0 .792.079 1.461.238 1.992.153.518.371.933.65 1.233.276.295.612.506.999.624.401.123.848.177 1.33.161.066.002.116.002.167.002zm1.735-10.655c.452.136.881.293 1.282.468l.048-6.72h3.261v12.456c-.033.968-.177 1.843-.428 2.608-.255.776-.653 1.448-1.181 2-.53.551-1.215.98-2.038 1.275-.815.292-1.81.44-2.962.44-1.104 0-2.056-.148-2.83-.441-.783-.295-1.439-.726-1.952-1.277-.511-.55-.898-1.222-1.153-1.998-.251-.764-.394-1.639-.428-2.6.034-.975.177-1.857.428-2.638.254-.791.642-1.48 1.152-2.045.511-.567 1.167-1.014 1.949-1.327.776-.31 1.73-.468 2.834-.468.756 0 1.434.09 2.018.267zm-24.33 1.69c-.504-.578-1.164-1.03-1.965-1.344-.793-.31-1.763-.466-2.881-.466-1.057 0-1.999.166-2.799.493-.727.297-1.355.718-1.87 1.256-.474-.506-1.075-.904-1.791-1.184-.793-.31-1.77-.467-2.907-.467-2.036 0-3.625.603-4.72 1.793-1.09 1.182-1.643 2.814-1.643 4.848v5.883h3.262v-6.64c0-.791.08-1.46.238-1.99.153-.52.372-.934.65-1.235.277-.295.613-.506 1-.623.355-.11.75-.165 1.17-.165.053 0 .106 0 .174.002.477-.015.9.043 1.258.171.344.125.64.336.874.629.243.3.432.708.563 1.213.133.517.202 1.173.202 1.95v6.688h3.262v-5.613c0-.431-.005-.712-.013-.845-.007-.125-.012-.218-.012-.28 0-.79.08-1.46.237-1.99.154-.52.374-.936.652-1.234.275-.295.61-.505.997-.625.357-.108.751-.164 1.172-.164l.137.003h.036c.479-.016.907.043 1.272.171.353.124.65.335.886.627.242.3.425.711.549 1.222.126.527.19 1.196.19 1.99v6.738h3.263v-5.98c0-1.01-.114-1.93-.34-2.733-.229-.817-.599-1.523-1.102-2.1zm7.591.485c.333-.198.73-.298 1.18-.298h.048c.847 0 1.519.272 2.055.835.501.53.83 1.384.972 2.543h-5.953c.053-.39.139-.769.258-1.135.139-.432.331-.818.571-1.148.235-.325.528-.593.869-.797zm5.786-.261c-.543-.565-1.204-1.017-1.963-1.345-.76-.326-1.616-.501-2.554-.517-.878.033-1.698.22-2.441.555-.744.337-1.398.792-1.947 1.354-.55.563-.982 1.223-1.287 1.962-.304.74-.459 1.54-.459 2.386.034.902.217 1.741.547 2.497.329.755.78 1.415 1.338 1.961.559.547 1.223.978 1.975 1.281.752.302 1.584.454 2.464.454h.003c.086.005.172.008.257.008.509 0 1.007-.089 1.479-.266.528-.196 1.054-.411 1.562-.64l.164-.074-.291-1.196-.216.057c-1.008.271-1.815.409-2.403.409-.698 0-1.284-.122-1.741-.366-.46-.244-.839-.553-1.121-.918-.286-.367-.496-.78-.628-1.223-.11-.371-.191-.738-.243-1.09h9.113v-.218c0-.094.005-.216.013-.367.009-.16.013-.281.013-.356.034-.825-.095-1.622-.383-2.37-.288-.748-.709-1.414-1.251-1.978zm25.469 5.368c-.242-.422-.562-.789-.952-1.09-.381-.294-.814-.55-1.286-.76-.455-.202-.921-.396-1.384-.576-.36-.147-.709-.289-1.044-.428-.321-.132-.609-.285-.856-.454-.241-.166-.435-.346-.575-.536-.129-.175-.192-.381-.192-.63 0-.232.059-.427.181-.594.128-.18.298-.332.501-.454.209-.127.458-.226.737-.293.286-.069.58-.104.852-.105.526.048.988.116 1.371.204.379.085.712.192.993.316.283.125.533.26.742.398.218.144.423.289.617.432l.349.26v-.433c0-.242.003-.479.012-.713.009-.248-.013-.546-.065-.883l-.015-.1-.087-.052c-.331-.197-.642-.369-.925-.51-.292-.144-.605-.26-.926-.345-.322-.083-.672-.143-1.044-.177-.366-.033-.786-.05-1.249-.05-.607 0-1.197.077-1.753.228-.56.151-1.067.379-1.504.677-.442.3-.798.674-1.059 1.105-.266.44-.401.938-.401 1.48 0 .637.125 1.186.371 1.631.244.44.564.816.955 1.117.381.295.815.547 1.289.749.463.197.939.379 1.413.542.358.13.701.26 1.026.388.313.124.592.269.831.43.23.155.418.334.559.532.13.183.194.395.194.645 0 .289-.061.531-.19.744-.13.214-.314.4-.547.553-.243.158-.523.28-.836.363-.314.084-.654.127-1.02.128-.764.03-1.436-.017-1.996-.142-.552-.124-1.125-.392-1.704-.797l-.408-.284.305 2.29.137.04c.68.197 1.356.34 2.012.422.651.082 1.299.131 1.927.148h.006c.569 0 1.158-.072 1.747-.213.594-.143 1.138-.37 1.616-.676.484-.31.884-.715 1.185-1.204.308-.498.462-1.09.462-1.763 0-.605-.124-1.13-.372-1.56zm-85.459-6.837c.8.312 1.461.764 1.965 1.342.503.576.874 1.282 1.103 2.1.226.804.34 1.724.34 2.733v5.883h-3.262V19.92c0-.792-.065-1.462-.192-1.99-.123-.512-.307-.923-.548-1.222-.238-.296-.528-.502-.886-.628-.366-.128-.795-.182-1.272-.17-.068-.002-.12-.002-.174-.002-.42 0-.815.055-1.17.164-.387.118-.723.328-.998.624-.28.3-.499.714-.652 1.232-.157.532-.236 1.201-.236 1.992v6.64H40.78v-5.882c0-2.034.553-3.666 1.643-4.85 1.095-1.189 2.683-1.792 4.721-1.792 1.12 0 2.089.157 2.882.467zm9.557 1.73c.332-.198.728-.298 1.178-.298h.05c.845 0 1.517.272 2.053.836.503.528.83 1.382.973 2.542h-5.954c.054-.388.14-.767.258-1.135.14-.432.332-.818.572-1.148.235-.325.527-.593.87-.797zm5.785-.261c-.544-.565-1.204-1.017-1.964-1.345-.76-.326-1.615-.501-2.553-.517-.877.033-1.7.22-2.442.555-.743.336-1.398.791-1.947 1.354-.55.563-.983 1.224-1.287 1.962-.304.74-.458 1.54-.458 2.386.034.903.217 1.744.547 2.496.328.756.78 1.416 1.337 1.962.56.548 1.224.978 1.976 1.281.751.302 1.584.454 2.463.454h.003c.086.005.172.008.257.008.51 0 1.007-.089 1.48-.266.526-.195 1.051-.411 1.561-.64l.165-.074-.292-1.196-.216.057c-1.008.271-1.816.409-2.401.409-.7 0-1.285-.122-1.742-.366-.461-.244-.838-.553-1.122-.918-.286-.368-.497-.78-.627-1.223-.11-.373-.191-.738-.244-1.09h9.115v-.218c0-.094.004-.217.011-.367.009-.16.013-.281.013-.356.034-.825-.095-1.622-.383-2.37-.288-.748-.708-1.414-1.25-1.978zm6.944-.208v8.626h-.003l-.002.5c0 .297.088.767.575.838.191.027.707.057.92.057.026 0 .06-.003.094-.005l.067-.004v.715c-.504.092-1.398.14-2.051.14-.474 0-.885-.038-1.234-.113-.348-.075-.635-.182-.864-.32-.23-.138-.398-.304-.507-.495-.11-.192-.166-.406-.166-.64v-1.765h.006v-7.534h-2.876v-1.875h2.876V9.793l3.165-1.962v6.058h2.851v1.875h-2.851z" clip-rule="evenodd"/>
    <path fill="#fff" fill-opacity=".7" fill-rule="evenodd" d="M136.736 11.733h-.89v-.173h1.969v.173h-.889v2.364h-.19v-2.364M138.465 11.56h.178l1.025 1.5 1.025-1.5h.179v2.537h-.19v-2.204l-1.011 1.46h-.014l-1.011-1.46v2.204h-.181V11.56M136.87 26.56h1.103v-1.25h-1.103v1.25zM141.982 26.703c-.455 0-.876-.085-1.263-.256-.387-.17-.722-.4-1.005-.69-.284-.289-.506-.629-.665-1.017-.159-.388-.24-.797-.24-1.225v-.024c0-.436.081-.849.24-1.238.159-.388.381-.728.665-1.023.283-.293.618-.525 1.005-.695.387-.17.808-.256 1.263-.256.296 0 .563.028.802.083.24.056.459.134.659.232.199.1.382.217.551.351.166.135.322.278.466.428l-.611.643c-.246-.254-.516-.471-.807-.655-.292-.182-.649-.273-1.072-.273-.311 0-.603.061-.874.185-.271.122-.506.29-.706.505-.199.214-.356.466-.467.755-.111.29-.167.601-.167.934v.024c0 .333.057.644.173.934.116.29.275.543.479.761.203.218.443.388.718.513.276.122.577.183.904.183.399 0 .753-.087 1.059-.262.308-.174.585-.392.832-.654l.588.547c-.312.35-.665.635-1.061.857-.394.222-.883.333-1.466.333M148.159 25.882c.335 0 .642-.064.922-.19.279-.127.519-.298.718-.512.2-.214.356-.464.467-.75.111-.285.168-.59.168-.915v-.024c0-.333-.058-.645-.174-.934-.116-.29-.277-.543-.485-.761-.207-.219-.451-.391-.73-.518-.279-.127-.583-.19-.91-.19-.335 0-.642.063-.922.19-.279.127-.516.297-.712.512-.196.214-.349.466-.461.755-.111.29-.167.597-.167.922v.024c0 .333.057.644.173.934.116.29.277.541.479.755.204.214.445.385.725.512.278.127.583.19.909.19m-.024.82c-.462 0-.89-.084-1.28-.255-.392-.17-.731-.4-1.018-.69-.287-.289-.511-.627-.671-1.01-.16-.386-.238-.796-.238-1.232v-.024c0-.436.078-.849.238-1.238.16-.388.384-.728.671-1.023.287-.293.628-.525 1.023-.695.395-.17.828-.256 1.299-.256.463 0 .893.086 1.288.256.394.17.736.4 1.022.69.288.29.511.626.672 1.01.158.386.238.796.238 1.232v.024c0 .436-.081.849-.245 1.237-.164.388-.389.73-.676 1.023-.287.294-.631.525-1.03.696-.399.17-.83.256-1.293.256M152.325 20.41h.922v1.035c.104-.15.217-.298.341-.44.124-.143.265-.268.426-.375.159-.107.339-.192.538-.256s.431-.095.694-.095c.503 0 .918.116 1.245.35.328.234.575.527.743.876.112-.167.237-.326.377-.476.139-.152.297-.282.472-.393.176-.111.374-.198.593-.262.22-.064.465-.095.736-.095.719 0 1.281.22 1.689.66.407.44.61 1.046.61 1.814v3.807h-.921v-3.585c0-.593-.143-1.05-.426-1.37-.284-.321-.676-.481-1.179-.481-.232 0-.451.041-.659.124-.207.084-.389.206-.544.368-.156.162-.28.362-.371.6-.092.237-.138.506-.138.807v3.537h-.911v-3.609c0-.577-.141-1.026-.423-1.346-.284-.321-.674-.481-1.168-.481-.248 0-.475.047-.682.142-.208.095-.389.23-.545.404-.156.174-.277.378-.365.61-.089.235-.132.494-.132.778v3.502h-.922v-6.15" clip-rule="evenodd"/>
</svg>
