<?xml version="1.0" encoding="utf-8"?>
<!-- Generator: Adobe Illustrator 16.0.0, SVG Export Plug-In . SVG Version: 6.00 Build 0)  -->
<!DOCTYPE svg PUBLIC "-//W3C//DTD SVG 1.0//EN" "http://www.w3.org/TR/2001/REC-SVG-20010904/DTD/svg10.dtd">
<svg version="1.0" id="Layer_1" xmlns="http://www.w3.org/2000/svg" xmlns:xlink="http://www.w3.org/1999/xlink" x="0px" y="0px"
	 width="24px" height="24px" viewBox="0 0 24 24" enable-background="new 0 0 24 24" xml:space="preserve">
<g>
	<path fill="#FFFFFF" d="M0,0h24v24H0V0z"/>
	<g>
		<path id="a" fill="#2FAEB0" d="M10.476,2.939c0.722-0.807,1.961-0.875,2.768-0.154c0.047,0.042,0.093,0.087,0.136,0.134
			l0.313,0.342c0.133,0.141,0.34,0.184,0.519,0.107l0.429-0.179c1.07-0.452,2.305,0.116,2.63,1.222l0.132,0.442
			c0.051,0.17,0.217,0.297,0.408,0.305l0.473,0.019c1.166,0.048,2.035,1.095,1.836,2.237l-0.08,0.451
			c-0.029,0.178,0.062,0.352,0.223,0.431l0.415,0.218c0.935,0.482,1.302,1.631,0.819,2.567c-0.043,0.084-0.092,0.164-0.147,0.24
			l-0.271,0.375c-0.103,0.141-0.102,0.334,0.004,0.473l0.277,0.372c0.631,0.84,0.461,2.031-0.379,2.66
			c-0.078,0.059-0.159,0.109-0.244,0.156l-0.412,0.227c-0.158,0.08-0.246,0.254-0.215,0.43l0.086,0.453
			c0.217,1.139-0.634,2.199-1.802,2.266l-0.473,0.025c-0.186,0.008-0.346,0.131-0.398,0.309l-0.125,0.447
			c-0.313,1.109-1.534,1.697-2.61,1.264l-0.437-0.178c-0.18-0.072-0.386-0.027-0.517,0.117l-0.307,0.342
			c-0.72,0.809-1.958,0.881-2.767,0.16c-0.048-0.043-0.094-0.088-0.138-0.135l-0.313-0.344c-0.133-0.141-0.34-0.184-0.519-0.105
			l-0.429,0.178c-1.07,0.451-2.304-0.115-2.63-1.223l-0.132-0.441c-0.058-0.178-0.221-0.299-0.408-0.305l-0.472-0.02
			c-1.166-0.047-2.035-1.094-1.836-2.236l0.079-0.451C3.99,15.958,3.9,15.784,3.74,15.704l-0.415-0.217
			c-0.935-0.482-1.302-1.631-0.82-2.566c0.043-0.084,0.093-0.164,0.148-0.24l0.27-0.375c0.104-0.141,0.103-0.334-0.003-0.475
			l-0.278-0.369c-0.63-0.84-0.461-2.031,0.378-2.661c0.078-0.059,0.16-0.111,0.246-0.157l0.412-0.225
			c0.158-0.081,0.245-0.255,0.215-0.431L3.806,7.535C3.589,6.396,4.44,5.336,5.607,5.269l0.474-0.026
			c0.19-0.01,0.35-0.135,0.398-0.308l0.125-0.448c0.314-1.108,1.535-1.696,2.611-1.263L9.651,3.4
			c0.182,0.074,0.39,0.026,0.517-0.116L10.476,2.939z M12.273,3.93c-0.174-0.185-0.465-0.194-0.65-0.021
			c-0.01,0.009-0.019,0.019-0.028,0.029l-0.308,0.345c-0.55,0.615-1.43,0.817-2.198,0.508L8.654,4.615
			C8.401,4.513,8.116,4.65,8.047,4.892L7.923,5.337C7.697,6.135,6.987,6.7,6.159,6.74L5.69,6.766C5.42,6.781,5.234,7.014,5.28,7.254
			l0.086,0.452c0.153,0.815-0.24,1.637-0.971,2.03L3.984,9.96c-0.199,0.099-0.279,0.341-0.18,0.539
			c0.011,0.021,0.023,0.042,0.038,0.061l0.28,0.373c0.497,0.668,0.506,1.575,0.017,2.25l-0.27,0.375
			c-0.13,0.182-0.089,0.434,0.093,0.564C3.98,14.136,4,14.147,4.021,14.157l0.412,0.217c0.74,0.381,1.147,1.197,1.006,2.018
			l-0.08,0.451c-0.041,0.24,0.15,0.471,0.419,0.48l0.473,0.02c0.83,0.035,1.55,0.586,1.784,1.377l0.133,0.441
			c0.071,0.242,0.356,0.373,0.612,0.266l0.43-0.178c0.763-0.322,1.646-0.131,2.206,0.479l0.31,0.34
			c0.174,0.186,0.466,0.195,0.652,0.021c0.009-0.01,0.018-0.018,0.026-0.027l0.31-0.346c0.553-0.615,1.431-0.816,2.196-0.508
			l0.436,0.176c0.253,0.102,0.537-0.035,0.605-0.277l0.125-0.445c0.225-0.799,0.936-1.363,1.765-1.402l0.468-0.025
			c0.27-0.016,0.457-0.248,0.411-0.488l-0.086-0.451c-0.153-0.816,0.239-1.639,0.97-2.031l0.415-0.227
			c0.197-0.1,0.276-0.34,0.177-0.537c-0.011-0.021-0.023-0.041-0.037-0.061l-0.28-0.373c-0.498-0.665-0.505-1.577-0.019-2.249
			l0.271-0.375c0.13-0.182,0.089-0.435-0.093-0.564c-0.02-0.014-0.039-0.025-0.061-0.036l-0.412-0.216
			c-0.739-0.381-1.146-1.198-1.005-2.018l0.08-0.452c0.04-0.24-0.149-0.47-0.42-0.481l-0.472-0.019
			c-0.827-0.032-1.543-0.584-1.784-1.376l-0.134-0.443c-0.07-0.243-0.355-0.374-0.612-0.265L14.79,4.75
			c-0.764,0.322-1.646,0.13-2.206-0.479L12.273,3.93z M14.435,11.709c1.023,0,1.85,0.811,1.85,1.809c0,1-0.826,1.807-1.85,1.807
			s-1.85-0.809-1.85-1.807c0-1,0.826-1.807,1.85-1.807V11.709z M14.709,8.805c0.188,0.15,0.218,0.424,0.067,0.611
			c-0.002,0.004-0.005,0.007-0.008,0.01L9.917,15.14c-0.162,0.188-0.443,0.215-0.636,0.059c-0.188-0.148-0.219-0.422-0.069-0.611
			c0.003-0.002,0.006-0.006,0.009-0.01l4.854-5.712C14.236,8.678,14.517,8.652,14.709,8.805L14.709,8.805z M14.435,12.769
			c-0.418-0.004-0.762,0.33-0.767,0.75l0,0c0,0.414,0.343,0.75,0.767,0.75c0.419,0.004,0.762-0.33,0.768-0.75l0,0
			c-0.005-0.42-0.348-0.756-0.766-0.75C14.436,12.769,14.435,12.769,14.435,12.769L14.435,12.769z M9.558,8.669
			c1.023,0,1.85,0.808,1.85,1.808c0,0.999-0.827,1.807-1.85,1.807c-1.022,0-1.85-0.812-1.85-1.807
			C7.708,9.477,8.536,8.669,9.558,8.669z M9.562,9.727c-0.418-0.005-0.762,0.33-0.767,0.749c0,0.001,0,0.001,0,0.001
			c0,0.413,0.344,0.75,0.767,0.75c0.419,0.006,0.762-0.33,0.767-0.749c0-0.001,0-0.002,0-0.002c-0.004-0.418-0.347-0.754-0.766-0.75
			C9.562,9.727,9.562,9.727,9.562,9.727z"/>
	</g>
</g>
</svg>
