<svg xmlns="http://www.w3.org/2000/svg" width="100" height="138" fill="none" viewBox="0 0 100 138">
    <path fill="#D3DCFB" d="M40.452 74.756H6.025C2.697 74.756 0 72.078 0 68.776v-5.981h46.24l-5.788 11.96z"/>
    <path fill="#EBF5FC" d="M78.33 26.913v41.863H6.026C2.697 68.776 0 66.098 0 62.796V26.912l42.178-14.951 36.153 14.951z"/>
    <path fill="#3C58A0" d="M10.64 38.871h-3.2c-.78 0-1.413-.628-1.413-1.402v-3.177c0-.774.632-1.401 1.412-1.401h3.2c.78 0 1.413.627 1.413 1.401v3.177c0 .774-.632 1.402-1.412 1.402zM22.69 38.871h-3.201c-.78 0-1.412-.628-1.412-1.402v-3.177c0-.774.632-1.401 1.412-1.401h3.2c.78 0 1.413.627 1.413 1.401v3.177c0 .774-.632 1.402-1.412 1.402zM34.74 38.871h-3.201c-.78 0-1.412-.628-1.412-1.402v-3.177c0-.774.632-1.401 1.412-1.401h3.2c.78 0 1.413.627 1.413 1.401v3.177c0 .774-.632 1.402-1.412 1.402zM46.79 38.871h-3.2c-.78 0-1.413-.628-1.413-1.402v-3.177c0-.774.632-1.401 1.412-1.401h3.2c.78 0 1.413.627 1.413 1.401v3.177c0 .774-.632 1.402-1.412 1.402zM58.838 38.871h-3.201c-.78 0-1.412-.628-1.412-1.402v-3.177c0-.774.632-1.401 1.412-1.401h3.2c.78 0 1.413.627 1.413 1.401v3.177c0 .774-.632 1.402-1.412 1.402zM70.888 38.871h-3.201c-.78 0-1.412-.628-1.412-1.402v-3.177c0-.774.632-1.401 1.412-1.401h3.2c.78 0 1.413.627 1.413 1.401v3.177c0 .774-.633 1.402-1.412 1.402zM10.64 50.833h-3.2c-.78 0-1.413-.628-1.413-1.402v-3.177c0-.774.632-1.401 1.412-1.401h3.2c.78 0 1.413.627 1.413 1.401v3.177c0 .775-.632 1.402-1.412 1.402zM22.69 50.833h-3.201c-.78 0-1.412-.628-1.412-1.402v-3.177c0-.774.632-1.401 1.412-1.401h3.2c.78 0 1.413.627 1.413 1.401v3.177c0 .775-.632 1.402-1.412 1.402zM34.74 50.833h-3.201c-.78 0-1.412-.628-1.412-1.402v-3.177c0-.774.632-1.401 1.412-1.401h3.2c.78 0 1.413.627 1.413 1.401v3.177c0 .775-.632 1.402-1.412 1.402zM48.202 50.833v-4.485c0-.826-.674-1.495-1.506-1.495h-3.013c-.832 0-1.506.669-1.506 1.495v2.99c0 .826.675 1.495 1.506 1.495h4.519zM10.64 62.792h-3.2c-.78 0-1.413-.628-1.413-1.402v-3.177c0-.774.632-1.401 1.412-1.401h3.2c.78 0 1.413.627 1.413 1.401v3.177c0 .774-.632 1.402-1.412 1.402zM22.69 62.792h-3.201c-.78 0-1.412-.628-1.412-1.402v-3.177c0-.774.632-1.401 1.412-1.401h3.2c.78 0 1.413.627 1.413 1.401v3.177c0 .774-.632 1.402-1.412 1.402zM34.74 62.792h-3.201c-.78 0-1.412-.628-1.412-1.402v-3.177c0-.774.632-1.401 1.412-1.401h3.2c.78 0 1.413.627 1.413 1.401v3.177c0 .774-.632 1.402-1.412 1.402z"/>
    <path fill="#2A428C" d="M70.845 32.89H67.73c-.189 0-.368.037-.534.102.54.211.922.732.922 1.343v3.092c0 .61-.382 1.131-.921 1.342.165.065.344.102.533.102h3.115c.804 0 1.455-.647 1.455-1.444v-3.092c0-.798-.651-1.444-1.455-1.444zM58.795 32.89h-3.116c-.188 0-.367.037-.533.102.54.211.921.732.921 1.343v3.092c0 .61-.382 1.131-.92 1.342.165.065.344.102.532.102h3.116c.803 0 1.455-.647 1.455-1.444v-3.092c0-.798-.651-1.444-1.455-1.444zM46.747 32.89h-3.115c-.189 0-.368.037-.533.102.539.211.92.732.92 1.343v3.092c0 .61-.381 1.131-.92 1.342.165.065.344.102.533.102h3.115c.804 0 1.455-.647 1.455-1.444v-3.092c0-.798-.651-1.444-1.455-1.444zM34.697 32.89h-3.115c-.189 0-.368.037-.533.102.539.211.921.732.921 1.343v3.092c0 .61-.382 1.131-.921 1.342.165.065.345.102.533.102h3.115c.804 0 1.455-.647 1.455-1.444v-3.092c0-.798-.651-1.444-1.455-1.444zM22.647 32.89h-3.115c-.189 0-.368.037-.534.102.54.211.921.732.921 1.343v3.092c0 .61-.382 1.131-.92 1.342.165.065.344.102.533.102h3.115c.804 0 1.455-.647 1.455-1.444v-3.092c0-.798-.651-1.444-1.455-1.444zM10.597 32.89H7.482c-.189 0-.368.037-.534.102.54.211.922.732.922 1.343v3.092c0 .61-.382 1.131-.922 1.342.166.065.345.102.534.102h3.115c.804 0 1.455-.647 1.455-1.444v-3.092c0-.798-.651-1.444-1.455-1.444zM10.597 44.853H7.482c-.189 0-.368.037-.534.102.54.211.922.732.922 1.342v3.093c0 .61-.382 1.131-.922 1.342.166.065.345.102.534.102h3.115c.804 0 1.455-.647 1.455-1.444v-3.092c0-.798-.651-1.445-1.455-1.445zM10.597 56.815H7.482c-.189 0-.368.037-.534.102.54.211.922.732.922 1.342v3.093c0 .61-.382 1.131-.922 1.342.166.065.345.102.534.102h3.115c.804 0 1.455-.646 1.455-1.444V58.26c0-.798-.651-1.445-1.455-1.445zM22.647 44.853h-3.115c-.189 0-.368.037-.534.102.54.211.921.732.921 1.342v3.093c0 .61-.382 1.131-.92 1.342.165.065.344.102.533.102h3.115c.804 0 1.455-.647 1.455-1.444v-3.092c0-.798-.651-1.445-1.455-1.445zM22.647 56.815h-3.115c-.189 0-.368.037-.534.102.54.211.921.732.921 1.342v3.093c0 .61-.382 1.131-.92 1.342.165.065.344.102.533.102h3.115c.804 0 1.455-.646 1.455-1.444V58.26c0-.798-.651-1.445-1.455-1.445zM34.697 44.853h-3.115c-.189 0-.368.037-.533.102.539.211.921.732.921 1.342v3.093c0 .61-.382 1.131-.921 1.342.165.065.345.102.533.102h3.115c.804 0 1.455-.647 1.455-1.444v-3.092c0-.798-.651-1.445-1.455-1.445zM48.202 50.834v-4.537c0-.797-.651-1.444-1.455-1.444h-3.115c-.189 0-.368.037-.534.102.54.211.922.732.922 1.342v3.093c0 .61-.382 1.131-.922 1.342.166.065.345.102.534.102h4.57zM34.697 56.815h-3.115c-.189 0-.368.037-.533.102.539.211.921.732.921 1.342v3.093c0 .61-.382 1.131-.921 1.342.165.065.345.102.533.102h3.115c.804 0 1.455-.646 1.455-1.444V58.26c0-.798-.651-1.445-1.455-1.445z"/>
    <path fill="#D3DCFB" d="M74.145 25.182v43.593h4.186V26.913l-4.186-1.731z"/>
    <path fill="#FF4155" d="M78.33 26.912V11.96c0-3.303-2.697-5.98-6.024-5.98H6.025C2.697 5.98 0 8.657 0 11.96v14.95h78.33z"/>
    <path fill="#E80054" d="M18.984 13.314h-3.921c-.754 0-1.364-.606-1.364-1.354 0-.748.61-1.354 1.364-1.354h3.921c.754 0 1.364.607 1.364 1.354 0 .748-.61 1.354-1.364 1.354zM28.619 13.314h-3.922c-.753 0-1.364-.606-1.364-1.354 0-.748.61-1.354 1.364-1.354h3.922c.753 0 1.364.607 1.364 1.354 0 .748-.61 1.354-1.364 1.354zM53.63 13.314h-3.922c-.753 0-1.364-.606-1.364-1.354 0-.748.611-1.354 1.364-1.354h3.922c.753 0 1.364.607 1.364 1.354 0 .748-.61 1.354-1.364 1.354zM63.265 13.314h-3.922c-.754 0-1.364-.606-1.364-1.354 0-.748.61-1.354 1.364-1.354h3.922c.753 0 1.363.607 1.363 1.354 0 .748-.61 1.354-1.363 1.354z"/>
    <path fill="#EBF5FC" d="M25.606 11.213c0 2.065-1.686 3.738-3.765 3.738-2.08 0-3.766-1.673-3.766-3.738V3.738C18.075 1.673 19.761 0 21.841 0s3.765 1.673 3.765 3.738v7.475zM60.252 11.213c0 2.065-1.686 3.738-3.765 3.738-2.08 0-3.766-1.673-3.766-3.738V3.738C52.72 1.673 54.407 0 56.486 0c2.08 0 3.766 1.673 3.766 3.738v7.475z"/>
    <path fill="#D3DCFB" d="M56.486 0c-.773 0-1.49.232-2.089.629 1.01.67 1.677 1.812 1.677 3.109v7.475c0 1.297-.666 2.44-1.677 3.11.598.396 1.316.628 2.09.628 2.08 0 3.765-1.673 3.765-3.738V3.739C60.252 1.673 58.566 0 56.486 0zM21.84 0c-.772 0-1.49.232-2.088.629 1.01.67 1.676 1.812 1.676 3.109v7.475c0 1.297-.666 2.44-1.677 3.11.598.396 1.317.628 2.09.628 2.08 0 3.765-1.673 3.765-3.738V3.739C25.606 1.673 23.92 0 21.841 0z"/>
    <path fill="#E80054" d="M72.306 5.979h-4.184c3.328 0 6.025 2.677 6.025 5.98V26.91h4.184V11.96c0-3.303-2.697-5.98-6.025-5.98z"/>
    <path fill="#E80054" d="M0 19.577h78.331v2.708H0v-2.708z"/>
    <g filter="url(#filter0_d)">
        <ellipse fill="#0B1219" rx="9.546" ry="13.797" transform="rotate(-109.397 58.257 23.615) skewX(.025)"/>
    </g>
    <path fill="url(#paint0_linear)" fill-rule="evenodd" d="M75.49 70.795l-6.72-1.924-13.614-3.896-3.774 13.292c-1.94 6.827 2.04 14.008 8.84 15.955 6.804 1.947 13.953-2.044 15.895-8.875l2.236-7.882c.032-4.825-1.23-6.204-2.864-6.67z" clip-rule="evenodd"/>
    <path fill="url(#paint1_linear)" fill-rule="evenodd" d="M59.474 66.233l6.731 1.879 13.64 3.806 3.686-13.317c1.894-6.84-2.131-13.995-8.945-15.896-6.816-1.902-13.939 2.137-15.836 8.98l-2.184 7.898c0 4.824 1.271 6.195 2.908 6.65z" clip-rule="evenodd"/>
    <path fill="#E5384F" fill-rule="evenodd" d="M77.742 56.984l-3.687 13.318 5.79 1.616 3.687-13.317c1.894-6.84-2.132-13.995-8.946-15.896-.997-.278-1.998-.429-2.992-.465 5.066 2.835 7.765 8.902 6.148 14.744z" clip-rule="evenodd"/>
    <path fill="url(#paint2_linear)" fill-rule="evenodd" d="M79.845 71.918l-5.79-1.616-3.687 13.317c-.988 3.57-3.4 6.379-6.451 7.976-.287.704-.626 1.365-1.017 1.986-.219.35-.453.688-.704 1.012 6.203.762 12.24-3.142 13.962-9.357l3.687-13.318z" clip-rule="evenodd"/>
    <path fill="#FFD772" fill-rule="evenodd" d="M48.618 56.12c-6.011 0-10.881 4.892-10.881 10.927 0 4.258 2.422 7.943 5.962 9.75 4.052 1.813 9.03 1.767 12.815-2.229 1.851-1.957 2.989-4.608 2.989-7.52 0-.276-.01-.547-.03-.816-.188-2.566-1.258-4.883-2.907-6.65-1.985-2.13-4.812-3.463-7.948-3.463z" clip-rule="evenodd"/>
    <path fill="url(#paint3_linear)" fill-rule="evenodd" d="M52.002 86.685l12.639 2.517c1.193-6.002-2.005-12.188-7.873-14.535l-.254-.098c-1.275-.478-2.582-.743-3.876-.805-3.27-.164-6.468.943-8.939 3.034-1 .84-1.878 1.846-2.595 2.995l10.898 6.892z" clip-rule="evenodd"/>
    <path fill="url(#paint4_linear)" fill-rule="evenodd" d="M62.9 93.583l-10.911-5.476-12.622-3.93c-1.187 5.995 2.011 12.178 7.872 14.521 1.559.622 3.169.92 4.75.92h.023c3.954-.003 7.742-1.85 10.184-5.024.25-.324.485-.661.704-1.011z" clip-rule="evenodd"/>
    <path fill="#FBBA58" fill-rule="evenodd" d="M51.3 56.457c2.495 2.677 5.696 12.44-.537 17.353.62-.063 1.245-.079 1.874-.046 1.295.062 2.602.327 3.876.805 1.852-1.957 2.99-4.608 2.99-7.521 0-.275-.01-.547-.03-.815-.189-2.566-1.258-4.883-2.907-6.65-1.402-1.503-3.218-2.606-5.265-3.126z" clip-rule="evenodd"/>
    <path fill="#fff" fill-opacity=".4" fill-rule="evenodd" d="M62.9 93.581l-6.08-2.432c-.124.416-.258.819-.407 1.218-1.106 2.972-2.895 5.485-5.122 7.23.232.013.467.02.698.02h.023c3.954-.004 7.742-1.85 10.184-5.025.25-.323.485-.66.704-1.01z" clip-rule="evenodd"/>
    <path fill="url(#paint5_linear)" fill-rule="evenodd" d="M57.625 86.396l7.016 2.805c1.193-6.002-2.005-12.188-7.873-14.534l-.254-.099c-.825-.31-1.663-.53-2.5-.66.433.575.834 1.187 1.2 1.835 1.538 2.727 2.438 6.039 2.438 9.61 0 .35-.007.696-.027 1.043z" clip-rule="evenodd"/>
    <path fill="#69DADE" fill-rule="evenodd" d="M64.64 89.2l-13.57-5.426-9.966-3.983c-.41.655-.77 1.358-1.066 2.105-.296.752-.518 1.511-.671 2.277l14.467 5.784L62.9 93.58c.414-.658.772-1.365 1.069-2.115.297-.746.518-1.505.671-2.264z" clip-rule="evenodd"/>
    <path fill="#fff" fill-opacity=".4" fill-rule="evenodd" d="M56.82 91.15l6.08 2.432c.414-.658.772-1.364 1.069-2.114.297-.746.518-1.505.672-2.265l-7.016-2.805c-.081 1.66-.358 3.257-.805 4.753z" clip-rule="evenodd"/>
    <path fill="#FBBA58" d="M51.396 66.85h-.023c-.475 0-.86-.388-.86-.866 0-.479.385-.867.86-.867h.023c.475 0 .86.388.86.867 0 .478-.385.866-.86.866zM48.983 71.559h-.022c-.476 0-.861-.388-.861-.866 0-.479.385-.867.86-.867h.023c.476 0 .861.388.861.867 0 .478-.385.866-.86.866zM44.364 68.1h-.026c-.476 0-.86-.388-.86-.866 0-.479.384-.867.86-.867h.026c.475 0 .86.388.86.867 0 .478-.385.866-.86.866zM47.517 62.475h-.023c-.475 0-.86-.388-.86-.866 0-.479.385-.867.86-.867h.023c.475 0 .86.388.86.867 0 .478-.385.866-.86.866z"/>
    <defs>
        <linearGradient id="paint0_linear" x1="81.12" x2="60.443" y1="91.234" y2="76.853" gradientUnits="userSpaceOnUse">
            <stop offset="0" stop-color="#D9EAFF"/>
            <stop offset="1" stop-color="#C2DDFF"/>
        </linearGradient>
        <linearGradient id="paint1_linear" x1="68.501" x2="70.821" y1="51.234" y2="59.314" gradientUnits="userSpaceOnUse">
            <stop stop-color="#FF637B"/>
            <stop offset="1" stop-color="#E63950"/>
        </linearGradient>
        <linearGradient id="paint2_linear" x1="73.379" x2="68.785" y1="87.064" y2="76.606" gradientUnits="userSpaceOnUse">
            <stop offset="0" stop-color="#D9EAFF"/>
            <stop offset="1" stop-color="#B3D2F9"/>
        </linearGradient>
        <linearGradient id="paint3_linear" x1="63.28" x2="51.084" y1="85.868" y2="87.797" gradientUnits="userSpaceOnUse">
            <stop stop-color="#24AEB1"/>
            <stop offset="1" stop-color="#4ECCD1"/>
        </linearGradient>
        <linearGradient id="paint4_linear" x1="61.292" x2="49.099" y1="96.287" y2="98.216" gradientUnits="userSpaceOnUse">
            <stop stop-color="#24AEB1"/>
            <stop offset="1" stop-color="#4ECCD1"/>
        </linearGradient>
        <linearGradient id="paint5_linear" x1="60.39" x2="57.343" y1="80.211" y2="82.379" gradientUnits="userSpaceOnUse">
            <stop stop-color="#9AE1D3"/>
            <stop offset="1" stop-color="#80D1C1"/>
        </linearGradient>
        <filter id="filter0_d" width="86.792" height="80.216" x="19.934" y="57.3" color-interpolation-filters="sRGB" filterUnits="userSpaceOnUse">
            <feFlood flood-opacity="0" result="BackgroundImageFix"/>
            <feColorMatrix in="SourceAlpha" values="0 0 0 0 0 0 0 0 0 0 0 0 0 0 0 0 0 0 127 0"/>
            <feOffset dx="8" dy="11"/>
            <feGaussianBlur stdDeviation="15"/>
            <feColorMatrix values="0 0 0 0 0.118924 0 0 0 0 0.557343 0 0 0 0 0.570833 0 0 0 0.6 0"/>
            <feBlend in2="BackgroundImageFix" result="effect1_dropShadow"/>
            <feBlend in="SourceGraphic" in2="effect1_dropShadow" result="shape"/>
        </filter>
    </defs>
</svg>
