<?xml version="1.0" encoding="utf-8"?>
<!-- Generator: Adobe Illustrator 16.0.0, SVG Export Plug-In . SVG Version: 6.00 Build 0)  -->
<!DOCTYPE svg PUBLIC "-//W3C//DTD SVG 1.0//EN" "http://www.w3.org/TR/2001/REC-SVG-20010904/DTD/svg10.dtd">
<svg version="1.0" id="Layer_1" xmlns="http://www.w3.org/2000/svg" xmlns:xlink="http://www.w3.org/1999/xlink" x="0px" y="0px"
	 width="42px" height="42px" viewBox="579 579 42 42" enable-background="new 579 579 42 42" xml:space="preserve">
<g opacity="0.4">
	<image overflow="visible" width="107" height="107" xlink:href="25AD754771F3D16A.png"  transform="matrix(1 0 0 1 546.5 546.5)">
	</image>
</g>
<g>
	<circle fill="#FFFFFF" cx="600" cy="600" r="19"/>
</g>
<g opacity="0.5">
	<path fill="#151B39" d="M596.747,607.004c-0.015-0.016-0.03-0.016-0.046-0.031c-0.34-0.078-0.573-0.278-0.666-0.619
		c-0.093-0.34,0-0.636,0.263-0.883c1.3-1.238,2.586-2.494,3.886-3.731c0.559-0.527,1.1-1.069,1.656-1.595
		c0.015-0.017,0.032-0.031,0.062-0.062c-0.048-0.046-0.094-0.092-0.124-0.14c-1.795-1.812-3.607-3.622-5.404-5.45
		c-0.356-0.356-0.387-0.866-0.062-1.207c0.325-0.372,0.882-0.387,1.254-0.031c0.495,0.495,0.991,1.007,1.502,1.502
		c1.518,1.533,3.035,3.065,4.568,4.599c0.171,0.171,0.325,0.356,0.356,0.604c0.03,0.31-0.063,0.558-0.279,0.774
		c-0.836,0.806-1.672,1.611-2.509,2.416c-1.161,1.115-2.322,2.229-3.483,3.36c-0.217,0.2-0.418,0.417-0.728,0.479
		C596.886,607.004,596.81,607.004,596.747,607.004z"/>
</g>
</svg>
